<svg width="200" height="200" viewBox="0 0 200 200" fill="none" xmlns="http://www.w3.org/2000/svg">
  <rect width="200" height="200" rx="28" fill="#1B1652"/>
  <path d="M56 56H82.5L99.5 97.5L116 56H142V144H119V103.5L99.5 144H90L70.5 103.5V144H56V56Z" fill="white"/>
  <path d="M126 56H158.5C174.2 56 186 67.6 186 83.6C186 95.9 179.3 105.2 168.4 109.2C179.2 113.5 186 123.3 186 135.6C186 153 172.2 164 152.2 164H126V56ZM149 74.8V96.8H157.6C164 96.8 168.4 92.7 168.4 85.8C168.4 79.4 163.9 74.8 157.6 74.8H149ZM149 113.2V143.2H154.6C163.8 143.2 170.6 138 170.6 129.6C170.6 120.8 163.6 113.2 154 113.2H149Z" fill="white"/>
</svg>
