<svg width="960" height="600" viewBox="0 0 960 600" fill="none" xmlns="http://www.w3.org/2000/svg">
  <rect width="960" height="600" rx="32" fill="url(#paint0_linear)"/>
  <g filter="url(#shadow)">
    <rect x="140" y="130" width="680" height="340" rx="24" fill="#0B1220"/>
    <rect x="140" y="130" width="680" height="340" rx="24" fill="url(#paint1_linear)" fill-opacity="0.35"/>
  </g>
  <g transform="translate(200 190)">
    <rect width="220" height="220" rx="20" fill="#0F172A" stroke="#3D82F6" stroke-opacity="0.35"/>
    <text x="36" y="44" fill="#60A5FA" font-size="20" font-family="'Inter', sans-serif" font-weight="600">Subscription Hunter</text>
    <g transform="translate(32 72)">
      <path d="M8 88C38 58 58 44 92 40C126 36 164 44 188 14" stroke="#60A5FA" stroke-width="6" stroke-linecap="round" stroke-linejoin="round" fill="none"/>
      <circle cx="188" cy="14" r="8" fill="#38BDF8"/>
      <circle cx="92" cy="40" r="8" fill="#38BDF8"/>
      <circle cx="8" cy="88" r="8" fill="#38BDF8"/>
    </g>
    <text x="36" y="188" fill="#94A3B8" font-size="16" font-family="'Inter', sans-serif">Projected monthly savings</text>
    <text x="36" y="212" fill="#F8FAFC" font-size="28" font-family="'Inter', sans-serif" font-weight="700">$482.65</text>
  </g>
  <g transform="translate(460 190)">
    <rect width="220" height="220" rx="20" fill="#0F172A" stroke="#F97316" stroke-opacity="0.35"/>
    <text x="36" y="44" fill="#FB923C" font-size="20" font-family="'Inter', sans-serif" font-weight="600">AI Savings Plan</text>
    <g transform="translate(40 76)">
      <rect x="0" y="72" width="24" height="56" rx="8" fill="#F97316" fill-opacity="0.6"/>
      <rect x="44" y="48" width="24" height="80" rx="8" fill="#F97316" fill-opacity="0.75"/>
      <rect x="88" y="24" width="24" height="104" rx="8" fill="#F97316" fill-opacity="0.9"/>
      <rect x="132" y="8" width="24" height="120" rx="8" fill="#F97316"/>
    </g>
    <text x="36" y="188" fill="#94A3B8" font-size="16" font-family="'Inter', sans-serif">Smart goal tracking</text>
    <text x="36" y="212" fill="#F8FAFC" font-size="28" font-family="'Inter', sans-serif" font-weight="700">On target</text>
  </g>
  <g transform="translate(310 110)">
    <rect width="120" height="48" rx="16" fill="#1E293B"/>
    <text x="22" y="30" fill="#E2E8F0" font-size="18" font-family="'Inter', sans-serif">Financly</text>
  </g>
  <g transform="translate(330 470)">
    <rect width="300" height="72" rx="18" fill="#1E293B"/>
    <text x="30" y="44" fill="#E2E8F0" font-size="20" font-family="'Inter', sans-serif">Forecast cash flow | Alerts | Insights</text>
  </g>
  <defs>
    <filter id="shadow" x="80" y="90" width="800" height="440" filterUnits="userSpaceOnUse" color-interpolation-filters="sRGB">
      <feFlood flood-opacity="0" result="BackgroundImageFix"/>
      <feGaussianBlur in="BackgroundImageFix" stdDeviation="24"/>
      <feComposite in2="SourceAlpha" operator="in" result="effect1_backgroundBlur"/>
      <feBlend mode="normal" in="SourceGraphic" in2="effect1_backgroundBlur" result="shape"/>
    </filter>
    <linearGradient id="paint0_linear" x1="0" y1="0" x2="960" y2="600" gradientUnits="userSpaceOnUse">
      <stop stop-color="#0B1220"/>
      <stop offset="1" stop-color="#1E293B"/>
    </linearGradient>
    <linearGradient id="paint1_linear" x1="140" y1="130" x2="780" y2="470" gradientUnits="userSpaceOnUse">
      <stop stop-color="#2563EB" stop-opacity="0.8"/>
      <stop offset="1" stop-color="#7C3AED" stop-opacity="0.5"/>
    </linearGradient>
  </defs>
</svg>
