<svg width="960" height="720" viewBox="0 0 960 720" fill="none" xmlns="http://www.w3.org/2000/svg">
  <rect width="960" height="720" rx="48" fill="url(#paint0_linear)"/>
  <g filter="url(#shadow-card)">
    <rect x="140" y="118" width="680" height="484" rx="36" fill="#F4F2FF"/>
  </g>
  <rect x="140" y="118" width="680" height="120" rx="36" fill="#5F30D4"/>
  <text x="188" y="188" fill="white" font-family="'Inter', 'Segoe UI', sans-serif" font-size="40" font-weight="700">Financly AI</text>
  <g transform="translate(188 266)">
    <text x="0" y="0" fill="#221946" font-family="'Inter', 'Segoe UI', sans-serif" font-size="42" font-weight="700">Subscription Hunter</text>
    <text x="0" y="46" fill="#5B4E91" font-family="'Inter', 'Segoe UI', sans-serif" font-size="22" font-weight="500">
      View and manage your recurring payments.
    </text>
  </g>
  <g transform="translate(640 160)">
    <rect x="0" y="0" width="120" height="48" rx="16" fill="#7E5CE6"/>
    <text x="26" y="32" fill="white" font-family="'Inter', 'Segoe UI', sans-serif" font-size="18" font-weight="600">Cancel</text>
  </g>
  <g transform="translate(188 340)">
    <g transform="translate(0 0)">
      <rect width="584" height="76" rx="22" fill="white"/>
      <text x="96" y="48" fill="#221946" font-family="'Inter', 'Segoe UI', sans-serif" font-size="26" font-weight="600">Spotify</text>
      <text x="332" y="36" fill="#5B4E91" font-family="'Inter', 'Segoe UI', sans-serif" font-size="18" font-weight="500">Apr 8</text>
      <text x="420" y="48" fill="#221946" font-family="'Inter', 'Segoe UI', sans-serif" font-size="26" font-weight="600">$8.99</text>
      <rect x="468" y="22" width="108" height="32" rx="12" fill="#E9E4FF"/>
      <text x="482" y="44" fill="#5F30D4" font-family="'Inter', 'Segoe UI', sans-serif" font-size="16" font-weight="600">Cancel</text>
      <g transform="translate(32 20)">
        <circle cx="24" cy="24" r="24" fill="#1ED760"/>
        <path d="M16 26.5C21 29.6 24.4 30.4 29.5 30C34.6 29.6 37.7 27.9 42 24" stroke="#0D381D" stroke-width="4" stroke-linecap="round"/>
        <path d="M16 20.5C21.5 23.6 25 24.4 30 24C35 23.6 38.5 22.1 42 18.5" stroke="#0D381D" stroke-width="4" stroke-linecap="round"/>
      </g>
    </g>
    <g transform="translate(0 96)">
      <rect width="584" height="76" rx="22" fill="white"/>
      <text x="96" y="48" fill="#221946" font-family="'Inter', 'Segoe UI', sans-serif" font-size="26" font-weight="600">Netflix</text>
      <text x="332" y="36" fill="#5B4E91" font-family="'Inter', 'Segoe UI', sans-serif" font-size="18" font-weight="500">Apr 9</text>
      <text x="420" y="48" fill="#221946" font-family="'Inter', 'Segoe UI', sans-serif" font-size="26" font-weight="600">$15.49</text>
      <rect x="468" y="22" width="108" height="32" rx="12" fill="#E9E4FF"/>
      <text x="482" y="44" fill="#5F30D4" font-family="'Inter', 'Segoe UI', sans-serif" font-size="16" font-weight="600">Cancel</text>
      <g transform="translate(32 20)">
        <rect width="48" height="48" rx="12" fill="#E50914"/>
        <path d="M18 12H26L30 24L34 12H42V36H34L30 24L26 36H18V12Z" fill="white"/>
      </g>
    </g>
    <g transform="translate(0 192)">
      <rect width="584" height="76" rx="22" fill="white"/>
      <text x="96" y="42" fill="#221946" font-family="'Inter', 'Segoe UI', sans-serif" font-size="22" font-weight="600">Doggy Treats Subscription</text>
      <text x="332" y="36" fill="#5B4E91" font-family="'Inter', 'Segoe UI', sans-serif" font-size="18" font-weight="500">Apr 5</text>
      <text x="420" y="48" fill="#221946" font-family="'Inter', 'Segoe UI', sans-serif" font-size="26" font-weight="600">$25.00</text>
      <rect x="468" y="22" width="108" height="32" rx="12" fill="#E9E4FF"/>
      <text x="482" y="44" fill="#5F30D4" font-family="'Inter', 'Segoe UI', sans-serif" font-size="16" font-weight="600">Cancel</text>
      <g transform="translate(32 20)">
        <rect width="48" height="48" rx="12" fill="#FFB547"/>
        <path d="M24 16C28.4183 16 32 19.5817 32 24C32 28.4183 28.4183 32 24 32C19.5817 32 16 28.4183 16 24C16 19.5817 19.5817 16 24 16ZM20 24C20 26.2091 21.7909 28 24 28C26.2091 28 28 26.2091 28 24C28 21.7909 26.2091 20 24 20C21.7909 20 20 21.7909 20 24Z" fill="#7A4514"/>
      </g>
    </g>
    <g transform="translate(0 288)">
      <rect width="584" height="76" rx="22" fill="white"/>
      <text x="96" y="48" fill="#221946" font-family="'Inter', 'Segoe UI', sans-serif" font-size="26" font-weight="600">Amazon Prime</text>
      <text x="332" y="36" fill="#5B4E91" font-family="'Inter', 'Segoe UI', sans-serif" font-size="18" font-weight="500">Apr 4</text>
      <text x="420" y="48" fill="#221946" font-family="'Inter', 'Segoe UI', sans-serif" font-size="26" font-weight="600">$14.99</text>
      <rect x="468" y="22" width="108" height="32" rx="12" fill="#E9E4FF"/>
      <text x="482" y="44" fill="#5F30D4" font-family="'Inter', 'Segoe UI', sans-serif" font-size="16" font-weight="600">Cancel</text>
      <g transform="translate(32 20)">
        <rect width="48" height="48" rx="12" fill="#232F3E"/>
        <path d="M16 32C19.6 28.6 24.4 26.8 29.5 27C34.6 27.2 38.6 29 42 32C36.8 26.2 29.3 24 24 24C18.7 24 12.8 26.2 8 32Z" fill="#FF9900"/>
      </g>
    </g>
    <g transform="translate(0 384)">
      <rect width="584" height="76" rx="22" fill="white"/>
      <text x="96" y="48" fill="#221946" font-family="'Inter', 'Segoe UI', sans-serif" font-size="26" font-weight="600">Apple Music</text>
      <text x="332" y="36" fill="#5B4E91" font-family="'Inter', 'Segoe UI', sans-serif" font-size="18" font-weight="500">Apr 9</text>
      <text x="420" y="48" fill="#221946" font-family="'Inter', 'Segoe UI', sans-serif" font-size="26" font-weight="600">$10.99</text>
      <rect x="468" y="22" width="108" height="32" rx="12" fill="#E9E4FF"/>
      <text x="482" y="44" fill="#5F30D4" font-family="'Inter', 'Segoe UI', sans-serif" font-size="16" font-weight="600">Cancel</text>
      <g transform="translate(32 20)">
        <rect width="48" height="48" rx="12" fill="#FA233B"/>
        <path d="M30 12C27 12 24 14.2 24 17.8V32C26.6 32 29 30.6 30.6 28.6C32.6 26.2 33.4 22.6 33.4 20C33.4 15.4 31.4 12 30 12ZM18 16C16.2 16 14 18.2 14 21.8C14 27 17.6 32 22 32C22 26.8 18.4 16 18 16Z" fill="white"/>
      </g>
    </g>
  </g>
  <defs>
    <linearGradient id="paint0_linear" x1="960" y1="0" x2="0" y2="720" gradientUnits="userSpaceOnUse">
      <stop offset="0" stop-color="#8B5CF6"/>
      <stop offset="1" stop-color="#4C1D95"/>
    </linearGradient>
    <filter id="shadow-card" x="108" y="94" width="744" height="548" filterUnits="userSpaceOnUse" color-interpolation-filters="sRGB">
      <feFlood flood-opacity="0" result="BackgroundImageFix"/>
      <feGaussianBlur in="BackgroundImageFix" stdDeviation="16"/>
      <feComposite in2="SourceAlpha" operator="in" result="effect1_backgroundBlur"/>
      <feBlend mode="normal" in="SourceGraphic" in2="effect1_backgroundBlur" result="shape"/>
    </filter>
  </defs>
</svg>
