<svg width="720" height="540" viewBox="0 0 720 540" fill="none" xmlns="http://www.w3.org/2000/svg">
  <rect width="720" height="540" rx="40" fill="url(#paint0_linear)"/>
  <g filter="url(#shadow-card)">
    <rect x="108" y="82" width="504" height="356" rx="32" fill="#F6F2FF"/>
  </g>
  <rect x="108" y="82" width="504" height="96" rx="32" fill="#5B2FD7"/>
  <text x="148" y="142" fill="white" font-family="'Inter', 'Segoe UI', sans-serif" font-size="32" font-weight="700">Financly AI</text>
  <g transform="translate(148 192)">
    <text x="0" y="0" fill="#231A47" font-family="'Inter', 'Segoe UI', sans-serif" font-size="34" font-weight="700">Subscription Hunter</text>
    <text x="0" y="36" fill="#61559B" font-family="'Inter', 'Segoe UI', sans-serif" font-size="18" font-weight="500">View and manage your recurring payments.</text>
  </g>
  <g transform="translate(492 112)">
    <rect x="0" y="0" width="96" height="38" rx="14" fill="#7D5BEC"/>
    <text x="22" y="26" fill="white" font-family="'Inter', 'Segoe UI', sans-serif" font-size="16" font-weight="600">Cancel</text>
  </g>
  <g transform="translate(148 248)">
    <g transform="translate(0 0)">
      <rect width="424" height="64" rx="20" fill="white"/>
      <text x="76" y="42" fill="#231A47" font-family="'Inter', 'Segoe UI', sans-serif" font-size="22" font-weight="600">Spotify</text>
      <text x="240" y="32" fill="#61559B" font-family="'Inter', 'Segoe UI', sans-serif" font-size="16" font-weight="500">Apr 8</text>
      <text x="310" y="42" fill="#231A47" font-family="'Inter', 'Segoe UI', sans-serif" font-size="22" font-weight="600">$8.99</text>
      <rect x="340" y="20" width="72" height="28" rx="10" fill="#ECE4FF"/>
      <text x="353" y="40" fill="#5B2FD7" font-family="'Inter', 'Segoe UI', sans-serif" font-size="14" font-weight="600">Cancel</text>
      <g transform="translate(20 16)">
        <circle cx="20" cy="20" r="20" fill="#1ED760"/>
        <path d="M14 22.5C18.5 25.3 21.4 26 25.7 25.7C30 25.3 32.6 23.9 36 21" stroke="#0C371D" stroke-width="3" stroke-linecap="round"/>
        <path d="M14 17.5C18.8 20.3 22 21 26.3 20.7C30.6 20.3 33.8 18.9 37 16" stroke="#0C371D" stroke-width="3" stroke-linecap="round"/>
      </g>
    </g>
    <g transform="translate(0 78)">
      <rect width="424" height="64" rx="20" fill="white"/>
      <text x="76" y="42" fill="#231A47" font-family="'Inter', 'Segoe UI', sans-serif" font-size="22" font-weight="600">Netflix</text>
      <text x="240" y="32" fill="#61559B" font-family="'Inter', 'Segoe UI', sans-serif" font-size="16" font-weight="500">Apr 9</text>
      <text x="310" y="42" fill="#231A47" font-family="'Inter', 'Segoe UI', sans-serif" font-size="22" font-weight="600">$15.49</text>
      <rect x="340" y="20" width="72" height="28" rx="10" fill="#ECE4FF"/>
      <text x="353" y="40" fill="#5B2FD7" font-family="'Inter', 'Segoe UI', sans-serif" font-size="14" font-weight="600">Cancel</text>
      <g transform="translate(20 16)">
        <rect width="40" height="40" rx="10" fill="#E50914"/>
        <path d="M15 10H22L25 20L28 10H35V30H28L25 20L22 30H15V10Z" fill="white"/>
      </g>
    </g>
    <g transform="translate(0 156)">
      <rect width="424" height="64" rx="20" fill="white"/>
      <text x="76" y="38" fill="#231A47" font-family="'Inter', 'Segoe UI', sans-serif" font-size="20" font-weight="600">Doggy Treats Subscription</text>
      <text x="240" y="32" fill="#61559B" font-family="'Inter', 'Segoe UI', sans-serif" font-size="16" font-weight="500">Apr 5</text>
      <text x="310" y="42" fill="#231A47" font-family="'Inter', 'Segoe UI', sans-serif" font-size="22" font-weight="600">$25.00</text>
      <rect x="340" y="20" width="72" height="28" rx="10" fill="#ECE4FF"/>
      <text x="353" y="40" fill="#5B2FD7" font-family="'Inter', 'Segoe UI', sans-serif" font-size="14" font-weight="600">Cancel</text>
      <g transform="translate(20 16)">
        <rect width="40" height="40" rx="10" fill="#FFB547"/>
        <path d="M20 12C23.866 12 27 15.134 27 19C27 22.866 23.866 26 20 26C16.134 26 13 22.866 13 19C13 15.134 16.134 12 20 12ZM16 19C16 21.2091 17.7909 23 20 23C22.2091 23 24 21.2091 24 19C24 16.7909 22.2091 15 20 15C17.7909 15 16 16.7909 16 19Z" fill="#7A4514"/>
      </g>
    </g>
    <g transform="translate(0 234)">
      <rect width="424" height="64" rx="20" fill="white"/>
      <text x="76" y="42" fill="#231A47" font-family="'Inter', 'Segoe UI', sans-serif" font-size="22" font-weight="600">Amazon Prime</text>
      <text x="240" y="32" fill="#61559B" font-family="'Inter', 'Segoe UI', sans-serif" font-size="16" font-weight="500">Apr 4</text>
      <text x="310" y="42" fill="#231A47" font-family="'Inter', 'Segoe UI', sans-serif" font-size="22" font-weight="600">$14.99</text>
      <rect x="340" y="20" width="72" height="28" rx="10" fill="#ECE4FF"/>
      <text x="353" y="40" fill="#5B2FD7" font-family="'Inter', 'Segoe UI', sans-serif" font-size="14" font-weight="600">Cancel</text>
      <g transform="translate(20 16)">
        <rect width="40" height="40" rx="10" fill="#232F3E"/>
        <path d="M14 26C17.2 22.8 21.8 21 26.6 21.2C31.4 21.4 34.8 23 38 26C33.6 21.2 27.8 19 23.3 19C18.8 19 13.6 21.2 10 26Z" fill="#FF9900"/>
      </g>
    </g>
  </g>
  <defs>
    <linearGradient id="paint0_linear" x1="720" y1="0" x2="0" y2="540" gradientUnits="userSpaceOnUse">
      <stop offset="0" stop-color="#8A5BF5"/>
      <stop offset="1" stop-color="#482985"/>
    </linearGradient>
    <filter id="shadow-card" x="84" y="62" width="552" height="404" filterUnits="userSpaceOnUse" color-interpolation-filters="sRGB">
      <feFlood flood-opacity="0" result="BackgroundImageFix"/>
      <feGaussianBlur in="BackgroundImageFix" stdDeviation="12"/>
      <feComposite in2="SourceAlpha" operator="in" result="effect1_backgroundBlur"/>
      <feBlend mode="normal" in="SourceGraphic" in2="effect1_backgroundBlur" result="shape"/>
    </filter>
  </defs>
</svg>
